<svg width="63" height="52" fill="none" xmlns="http://www.w3.org/2000/svg"><path d="M11.324.766c-2.457 0-4.723.836-6.547 2.223l2.938 2.554 22 19.105c1.203.985 2.82 1.004 3.941.032L55.683 5.547l2.941-2.555A10.782 10.782 0 0 0 52.081.773L11.324.766Zm49.723 4.75-3.066 2.66-22.027 19.141c-2.43 2.11-6.024 2.027-8.461.031l-.04-.03L2.357 5.515A10.825 10.825 0 0 0 .45 11.652v28.69c0 5.993 4.891 10.896 10.875 10.896h40.754c5.985 0 10.875-4.902 10.875-10.895v-28.69c0-2.274-.707-4.387-1.91-6.137h.004Z" fill="#916DEB"/></svg>