<svg width="63" height="52" viewBox="0 0 63 52" fill="none" xmlns="http://www.w3.org/2000/svg">
<path d="M11.324 0.765999C8.867 0.765999 6.6013 1.60194 4.7771 2.9887L7.7146 5.5434L29.7146 24.6484C30.9177 25.6328 32.5349 25.6523 33.656 24.6796L55.683 5.54665L58.6244 2.99195C56.8002 1.60525 54.5346 0.773148 52.0814 0.773148L11.324 0.765999ZM61.047 5.516L57.9806 8.1762L35.9536 27.3172C33.5239 29.4266 29.9302 29.3445 27.4927 27.3484C27.4771 27.3367 27.4654 27.3289 27.4536 27.3172L2.35563 5.5162C1.15643 7.2662 0.449432 9.3795 0.449432 11.6529V40.3439C0.449432 46.3361 5.34003 51.2389 11.3244 51.2389H52.0784C58.0628 51.2389 62.9534 46.3366 62.9534 40.3439V11.6529C62.9534 9.3795 62.2464 7.2662 61.0432 5.5162L61.047 5.516Z" fill="#916DEB"/>
</svg>
