<svg width="55" height="72" viewBox="0 0 55 72" fill="none" xmlns="http://www.w3.org/2000/svg">
<path d="M52.4 30.7H48.5C48 30.7 47.5 30.3 47.5 29.7V20.5C47.5 9.9 39.3 0.900001 28.7 0.500001C17.6 0.100001 8.4 9 8.4 20.1V29.8C8.4 30.3 8 30.8 7.4 30.8H3.5C2 30.8 0.800003 32 0.800003 33.5V68.9C0.800003 70.4 2 71.6 3.5 71.6H52.3C53.8 71.6 55 70.4 55 68.9V33.4C55.1 31.9 53.9 30.7 52.4 30.7ZM14.5 20.1C14.5 12.4 20.9 6.2 28.7 6.6C36 7 41.6 13.2 41.6 20.5V29.8C41.6 30.3 41.2 30.8 40.6 30.8H15.4C14.9 30.8 14.4 30.4 14.4 29.8V20.1H14.5Z" fill="#916DEB"/>
</svg>
