<svg width="35" height="35" viewBox="0 0 35 35" fill="none" xmlns="http://www.w3.org/2000/svg">
<path d="M17.5001 13.1314C20.7217 13.1314 23.3335 15.7431 23.3335 18.9647C23.3335 22.1865 20.7217 24.798 17.5001 24.798C14.2785 24.798 11.6668 22.1865 11.6668 18.9647C11.6668 15.7431 14.2785 13.1314 17.5001 13.1314ZM17.5001 15.3189C15.4866 15.3189 13.8543 16.9512 13.8543 18.9647C13.8543 20.9782 15.4866 22.6105 17.5001 22.6105C19.5136 22.6105 21.146 20.9782 21.146 18.9647C21.146 16.9512 19.5136 15.3189 17.5001 15.3189ZM17.5001 8.02051C24.2281 8.02051 30.0361 12.6143 31.6476 19.0519C31.7943 19.6379 31.4382 20.2319 30.8522 20.3786C30.2662 20.5251 29.6723 20.1692 29.5255 19.583C28.1563 14.1134 23.2188 10.208 17.5001 10.208C11.779 10.208 6.83984 14.1167 5.47303 19.5898C5.32667 20.1757 4.73293 20.5321 4.14687 20.3859C3.56081 20.2394 3.20436 19.6458 3.35072 19.0597C4.95939 12.6182 10.7692 8.02051 17.5001 8.02051Z" fill="#AB7EF1"/>
</svg>
