<svg width="161" height="161" viewBox="0 0 161 161" fill="none" xmlns="http://www.w3.org/2000/svg">
<path d="M124.685 20.625L124.694 20.1164C124.762 16.2097 124.724 12.6793 124.651 9.75433L124.65 9.75313C124.531 4.51693 120.764 0.5 116.222 0.5H44.7778C40.2353 0.5 36.4674 4.51705 36.3332 9.75456L36.3327 9.77429L36.3306 9.79393C36.0887 12.0997 36.163 14.7854 36.2458 17.7811C36.2667 18.5393 36.2882 19.3175 36.3053 20.1143L36.3162 20.625H35.8054H7.61923C4.79073 20.625 2.2749 22.8073 1.58205 26.0094C1.35931 27.0591 -3.85803 52.4949 10.7907 77.068C21.1753 94.4858 38.7084 106.752 62.909 113.76C68.3922 115.346 72.0495 121.002 72.0497 127.249L124.685 20.625ZM124.685 20.625H125.194M124.685 20.625H125.194M125.194 20.625H153.369C156.199 20.625 158.734 22.8088 159.42 26.0073C159.637 27.046 164.857 52.4825 149.459 77.0522L149.459 77.0521M125.194 20.625L149.459 77.0521M149.459 77.0521L149.453 77.062M149.459 77.0521L149.453 77.062M149.453 77.062C139.079 94.4891 121.552 106.755 97.3346 113.754C91.8511 115.338 88.1939 120.996 88.1939 127.243C88.1939 134.962 93.8146 141.375 100.814 141.375H102.112C109.192 141.375 115.026 147.852 115.026 155.969C115.026 158.569 113.41 160.5 111.305 160.5H48.9454C47.074 160.5 45.2247 158.548 45.2247 155.969C45.2247 147.852 51.0587 141.375 58.1386 141.375H59.4243C66.434 141.375 72.0552 134.963 72.0497 127.25L149.453 77.062ZM125.202 19.625C125.258 15.9087 125.221 12.5472 125.15 9.74176C125.026 4.286 121.085 0 116.222 0H44.7778L125.202 19.625ZM21.2086 69.3749L21.2088 69.3751C27.8363 80.3576 38.1251 88.9726 51.9081 95.1382L53.3073 95.7642L52.5463 94.4336C42.1681 76.2885 37.9866 53.8967 36.4911 35.1789L36.4543 34.7188H35.9927H13.5226H13.0476L13.0232 35.1931C12.6376 42.6978 13.3275 56.3009 21.2086 69.3749ZM108.464 94.4083L107.703 95.7378L109.102 95.1132C122.89 88.9572 133.18 80.358 139.793 69.3751C147.666 56.328 148.111 42.6898 147.968 35.2092L147.959 34.7188H147.468H124.998H124.536L124.5 35.1794C123.021 53.8906 118.837 76.2885 108.464 94.4083Z" fill="#D397FA" stroke="black"/>
</svg>
