<svg width="205" height="119" viewBox="0 0 205 119" fill="none" xmlns="http://www.w3.org/2000/svg">
<path d="M15.7358 85.307C16.6838 89.5033 15.2776 95.3325 11.1221 96.8425C7.29846 98.2295 3.12721 95.2096 1.642 91.5751C-0.60163 85.9215 3.39582 78.1259 8.05687 77.7923C11.5013 77.5289 14.8352 81.3214 15.7358 85.307Z" fill="#9FFBB6" stroke="black" stroke-miterlimit="10"/>
<path d="M26.7016 109.336C34.0966 107.11 37.3682 94.1364 34.0091 80.3593C30.6499 66.5822 21.932 57.2186 14.537 59.4451C7.14203 61.6716 3.87034 74.6451 7.2295 88.4222C10.5887 102.199 19.3066 111.563 26.7016 109.336Z" fill="#9FFBB6" stroke="black" stroke-miterlimit="10"/>
<path d="M51.6495 35.6532C39.0094 32.7913 26.3692 36.97 19.0538 46.7849C9.84225 59.0753 12.8127 74.5613 14.1557 81.602C15.0721 86.4479 19.7016 110.66 38.4248 116.718C53.0084 121.423 65.8855 111.784 68.0343 110.116C60.5412 109.213 53.4801 105.768 47.8111 100.248C42.1422 94.7291 38.1405 87.4034 36.3503 79.2676C34.5601 71.1318 35.0683 62.5808 37.8056 54.7772C40.543 46.9737 45.3767 40.2964 51.6495 35.6532Z" fill="#9FFBB6" stroke="black" stroke-miterlimit="10"/>
<path d="M65.4482 111.285C76.3554 108.001 81.0905 88.4948 76.0243 67.7168C70.9582 46.9389 58.0093 32.7572 47.1021 36.0411C36.195 39.3251 31.4599 58.8312 36.526 79.6092C41.5921 100.387 54.541 114.569 65.4482 111.285Z" fill="#9FFBB6" stroke="black" stroke-miterlimit="10"/>
<path d="M55.5049 63.9926C54.5603 65.3629 53.9063 66.9524 53.5917 68.6428C53.277 70.3331 53.3099 72.0805 53.6879 73.7548C54.0999 75.2861 54.7985 76.7034 55.7379 77.9138C56.6773 79.1241 57.8363 80.1001 59.139 80.7779L129.323 61.4643L125.626 44.9775L55.5049 63.9926Z" fill="#9FFBB6" stroke="black" stroke-miterlimit="10"/>
<path d="M157.369 5.10286C154.999 4.78682 141.11 3.1715 131.077 13.7589C118.437 27.1555 123.082 48.2599 124.188 53.1234C127.348 67.1697 137.176 84.0427 150.306 86.2199C161.366 87.9757 174.307 79.3723 174.259 79.1968C173.695 79.3118 173.141 79.4762 172.6 79.6884C171.02 79.0914 151.886 71.3484 146.498 48.7164C144.7 41.0265 144.759 32.9457 146.667 25.2887C148.575 17.6317 152.267 10.6691 157.369 5.10286Z" fill="#9FFBB6" stroke="black" stroke-miterlimit="10"/>
<path d="M173.495 79.4585C183.526 76.4382 187.619 57.4267 182.638 36.995C177.656 16.5634 165.486 2.44862 155.454 5.46887C145.423 8.48911 141.33 27.5006 146.311 47.9323C151.293 68.364 163.463 82.4787 173.495 79.4585Z" fill="#9FFBB6" stroke="black" stroke-miterlimit="10"/>
<path d="M179.347 10.6336C177.119 10.4229 169.44 10.0366 163.452 15.9009C153.798 25.2065 157.748 41.7109 158.301 43.9934C158.854 46.2759 162.756 62.5695 175.254 65.5017C180.634 66.525 186.164 65.2722 190.754 61.9901C185.888 60.4806 181.488 57.514 178.036 53.4144C174.583 49.3148 172.211 44.2397 171.178 38.7436C168.286 22.6607 178.746 11.3183 179.347 10.6336Z" fill="#9FFBB6" stroke="black" stroke-miterlimit="10"/>
<path d="M190.835 61.9967C198.002 59.8386 201.021 46.6399 197.578 32.5165C194.134 18.3931 185.532 8.69326 178.364 10.8513C171.197 13.0093 168.178 26.2081 171.622 40.3315C175.065 54.4549 183.667 64.1547 190.835 61.9967Z" fill="#9FFBB6" stroke="black" stroke-miterlimit="10"/>
<path d="M196.221 23.4862C194.726 23.0277 193.148 23.0254 191.652 23.4796C190.156 23.9338 188.798 24.8277 187.721 26.0672C184.924 29.5787 185.904 34.0735 186.141 35.5308C186.378 36.9881 187.405 41.4829 191.149 43.1334C192.736 43.7411 194.446 43.8291 196.077 43.3871C197.707 42.9451 199.189 41.9916 200.345 40.6401C198.629 40.2014 197.062 39.2231 195.832 37.8222C194.602 36.4213 193.761 34.6568 193.409 32.7391C193.184 31.0595 193.322 29.3445 193.811 27.7357C194.3 26.1269 195.126 24.6703 196.221 23.4862Z" fill="#9FFBB6" stroke="black" stroke-miterlimit="10"/>
<path d="M200.4 40.6386C202.834 39.9057 203.871 35.4724 202.717 30.7365C201.562 26.0007 198.653 22.7556 196.218 23.4884C193.784 24.2213 192.747 28.6546 193.902 33.3905C195.057 38.1264 197.966 41.3715 200.4 40.6386Z" fill="#9FFBB6" stroke="black" stroke-miterlimit="10"/>
</svg>
