<svg width="184" height="145" viewBox="0 0 184 145" fill="none" xmlns="http://www.w3.org/2000/svg">
<path d="M5.09931 10.1562L50.1432 144.45H0L5.09931 10.1562Z" fill="#D397FA"/>
<path d="M45.3757 144.387L5.34539 10.2207H142.908L183.327 144.387H45.3757Z" fill="white" stroke="black"/>
<ellipse cx="42.0694" cy="18.4412" rx="5.09931" ry="5.23223" fill="#D397FA"/>
<ellipse cx="69.2656" cy="18.4412" rx="5.09931" ry="5.23223" fill="#D397FA"/>
<ellipse cx="96.4619" cy="18.4412" rx="5.09931" ry="5.23223" fill="#D397FA"/>
<ellipse cx="123.658" cy="18.4412" rx="5.09931" ry="5.23223" fill="#D397FA"/>
<path d="M41.8969 19.3128C43.4569 18.4886 44.7641 17.2877 45.6885 15.8297C46.6128 14.3716 47.1221 12.7074 47.1655 11.0025C47.2089 9.29757 46.785 7.61152 45.936 6.11213C45.087 4.61275 43.8425 3.35232 42.3263 2.4563C40.8101 1.56029 39.0752 1.05994 37.2942 1.00506C35.5132 0.950177 33.7482 1.34268 32.1749 2.14349C30.6017 2.9443 29.275 4.1255 28.3269 5.56951C27.3789 7.01352 26.8426 8.66998 26.7713 10.374" stroke="black"/>
<path d="M69.0932 19.3128C70.6532 18.4886 71.9604 17.2877 72.8847 15.8297C73.8091 14.3716 74.3183 12.7074 74.3618 11.0025C74.4052 9.29757 73.9813 7.61152 73.1323 6.11213C72.2833 4.61275 71.0387 3.35232 69.5226 2.4563C68.0064 1.56029 66.2714 1.05994 64.4904 1.00506C62.7094 0.950177 60.9444 1.34268 59.3712 2.14349C57.7979 2.9443 56.4712 4.1255 55.5232 5.56951C54.5752 7.01352 54.0388 8.66998 53.9676 10.374" stroke="black"/>
<path d="M96.2896 19.3128C97.8496 18.4886 99.1569 17.2877 100.081 15.8297C101.006 14.3716 101.515 12.7074 101.558 11.0025C101.602 9.29757 101.178 7.61152 100.329 6.11213C99.4797 4.61275 98.2352 3.35232 96.719 2.4563C95.2029 1.56029 93.4679 1.05994 91.6869 1.00506C89.9059 0.950177 88.1409 1.34268 86.5676 2.14349C84.9944 2.9443 83.6677 4.1255 82.7197 5.56951C81.7716 7.01352 81.2353 8.66998 81.164 10.374" stroke="black"/>
<path d="M123.486 19.3128C125.046 18.4886 126.353 17.2877 127.277 15.8297C128.202 14.3716 128.711 12.7074 128.754 11.0025C128.798 9.29757 128.374 7.61152 127.525 6.11213C126.676 4.61275 125.431 3.35232 123.915 2.4563C122.399 1.56029 120.664 1.05994 118.883 1.00506C117.102 0.950177 115.337 1.34268 113.764 2.14349C112.191 2.9443 110.864 4.1255 109.916 5.56951C108.968 7.01352 108.432 8.66998 108.36 10.374" stroke="black"/>
<path d="M31.0915 61.4381C34.1824 61.4381 37.726 60.4421 40.6346 59.3426C41.015 59.1988 44.6813 57.7248 44.6813 58.2043C44.6813 59.8542 34.5346 68.8988 36.4871 70.2857C37.1221 70.7368 38.2932 70.5449 38.9832 70.4151C41.9247 69.8617 44.7725 67.8911 47.4296 66.5733C51.9998 64.3068 56.3419 62.6022 61.4481 62.6022C61.5577 62.6022 62.9009 62.4998 62.8096 62.7575C62.3615 64.0218 60.2799 64.9767 59.3302 65.6808C55.5743 68.4655 52.7968 71.4321 50.6568 75.6668C49.4228 78.1087 53.894 75.7366 54.6027 75.2916C61.3202 71.0738 67.8609 66.4738 75.2774 63.5595C75.5984 63.4333 84.7725 60.5814 84.6441 61.7227C84.563 62.4435 83.0628 63.4671 82.6019 63.9992C80.9234 65.9368 79.0052 67.6177 77.2819 69.5096C75.8192 71.1154 74.7554 72.8174 73.7016 74.7096C73.3631 75.3175 72.379 76.7401 72.6679 77.5553C73.0294 78.5755 81.7986 71.1923 82.211 70.8031C87.5615 65.7544 93.8914 61.4484 100.579 58.4371C100.963 58.2641 102.687 57.4136 102.192 58.5665C101.634 59.8699 100.791 61.1493 100.075 62.3694C98.3299 65.3422 96.0055 68.2332 94.7546 71.4758C94.3275 72.5829 93.8744 73.7477 93.5443 74.8907C93.3699 75.4947 94.7673 74.61 95.284 74.2698C97.4088 72.8706 99.3473 71.1095 101.197 69.3544C103.877 66.8099 106.848 64.7453 109.908 62.7057C111.208 61.8387 124.708 55.1574 124.708 57.9456C124.708 59.0115 123.343 60.2437 122.766 61.0242C121.569 62.6453 120.192 64.1785 118.896 65.7196C116.712 68.3167 115.086 70.4417 114.635 73.9852C114.202 77.3952 117.953 74.2936 118.858 73.3643C122.765 69.3562 126.893 66.3009 131.843 63.7147C132.215 63.5206 136.608 60.6047 136.608 61.5933C136.608 62.9133 135.806 63.9608 135.045 64.9564C133.143 67.444 130.933 69.6312 129.082 72.1743C128.525 72.9401 124.942 78.9889 127.027 79.3145C128.341 79.5196 129.712 78.3195 130.645 77.5682C132.43 76.1314 133.706 74.3008 135.398 72.7952C137.609 70.8278 140.407 69.8733 142.609 67.9703C143.582 67.13 144.725 67.2589 145.912 67.2589C147.412 67.2589 148.757 67.8157 148.181 69.5872" stroke="#D397FA" stroke-width="7" stroke-linecap="round"/>
<line y1="-0.5" x2="107.353" y2="-0.5" transform="matrix(0.285003 0.958527 -0.954334 0.298742 26.7714 31.5215)" stroke="black"/>
<line y1="-0.5" x2="107.353" y2="-0.5" transform="matrix(0.285003 0.958527 -0.954334 0.298742 48.8685 31.5215)" stroke="black"/>
<line y1="-0.5" x2="107.353" y2="-0.5" transform="matrix(0.285003 0.958527 -0.954334 0.298742 70.9653 31.5215)" stroke="black"/>
<line y1="-0.5" x2="107.353" y2="-0.5" transform="matrix(0.285003 0.958527 -0.954334 0.298742 93.0624 31.5215)" stroke="black"/>
<line y1="-0.5" x2="107.353" y2="-0.5" transform="matrix(0.285003 0.958527 -0.954334 0.298742 115.159 31.5215)" stroke="black"/>
<line y1="-0.5" x2="107.353" y2="-0.5" transform="matrix(0.285003 0.958527 -0.954334 0.298742 137.256 31.5215)" stroke="black"/>
<line x1="26.7713" y1="55.4385" x2="150.005" y2="55.4385" stroke="black"/>
<line x1="34.4204" y1="82.4717" x2="157.654" y2="82.4717" stroke="black"/>
<line x1="42.0692" y1="108.633" x2="165.302" y2="108.633" stroke="black"/>
</svg>
