<svg width="172" height="173" viewBox="0 0 172 173" fill="none" xmlns="http://www.w3.org/2000/svg">
<path d="M35.5002 141.353C4.57701 112.768 -6.38668 64.6549 5.98261 54.4661C16.1029 46.2586 38.0303 65.7869 49.2751 55.8812C61.0822 45.6925 43.0905 19.0887 53.4919 7.76788C66.9857 -7.23217 121.242 2.67354 149.073 37.768C175.217 70.8813 181.964 131.164 147.105 158.9C113.371 185.787 61.6444 165.127 35.5002 141.353Z" fill="white" stroke="black" stroke-miterlimit="10"/>
<path d="M100.385 45.9003C106.454 38.5803 103.836 26.313 94.5392 18.5006C85.2419 10.6882 72.7853 10.2891 66.7167 17.6092C60.648 24.9292 63.2654 37.1965 72.5626 45.0089C81.8599 52.8213 94.3164 53.2204 100.385 45.9003Z" fill="white" stroke="black" stroke-miterlimit="10"/>
<path d="M45.0582 126.353C54.3737 126.353 61.9254 118.75 61.9254 109.372C61.9254 99.9934 54.3737 92.3906 45.0582 92.3906C35.7427 92.3906 28.1909 99.9934 28.1909 109.372C28.1909 118.75 35.7427 126.353 45.0582 126.353Z" fill="#FBB6E0" stroke="black" stroke-miterlimit="10"/>
<path d="M133.611 150.126C142.927 150.126 150.478 142.524 150.478 133.145C150.478 123.767 142.927 116.164 133.611 116.164C124.296 116.164 116.744 123.767 116.744 133.145C116.744 142.524 124.296 150.126 133.611 150.126Z" fill="#FF25AA" stroke="black" stroke-miterlimit="10"/>
<path d="M86.1018 152.107C95.4173 152.107 102.969 144.504 102.969 135.126C102.969 125.747 95.4173 118.145 86.1018 118.145C76.7863 118.145 69.2346 125.747 69.2346 135.126C69.2346 144.504 76.7863 152.107 86.1018 152.107Z" fill="#FF81CE" stroke="black" stroke-miterlimit="10"/>
</svg>
