<svg width="24" height="23" viewBox="0 0 24 23" fill="none" xmlns="http://www.w3.org/2000/svg">
<path d="M3.00002 5.75C2.66866 5.75 2.40002 6.00744 2.40002 6.325C2.40002 6.64256 2.66866 6.9 3.00002 6.9H21C21.3313 6.9 21.6 6.64256 21.6 6.325C21.6 6.00744 21.3313 5.75 21 5.75H3.00002Z" fill="#D9D9D9"/>
<path d="M3.00002 9.2002C2.66866 9.2002 2.40002 9.45763 2.40002 9.7752C2.40002 10.0928 2.66866 10.3502 3.00002 10.3502H21C21.3313 10.3502 21.6 10.0928 21.6 9.7752C21.6 9.45763 21.3313 9.2002 21 9.2002H3.00002Z" fill="#D9D9D9"/>
<path d="M2.40002 13.2249C2.40002 12.9074 2.66866 12.6499 3.00002 12.6499H21C21.3313 12.6499 21.6 12.9074 21.6 13.2249C21.6 13.5424 21.3313 13.7999 21 13.7999H3.00002C2.66866 13.7999 2.40002 13.5424 2.40002 13.2249Z" fill="#D9D9D9"/>
</svg>
