<svg width="11" height="20" viewBox="0 0 11 20" fill="none" xmlns="http://www.w3.org/2000/svg">
<path d="M1.2089 19.9725C1.3051 19.9725 1.40036 19.9536 1.48925 19.9168C1.57814 19.8801 1.65892 19.8261 1.72696 19.7581L10.7548 10.7298C10.8921 10.5924 10.9692 10.4062 10.9692 10.212C10.9692 10.0178 10.8921 9.8315 10.7548 9.69415L1.72696 0.665834C1.65896 0.5978 1.57823 0.543827 1.48937 0.506995C1.40051 0.470163 1.30526 0.451195 1.20907 0.451172C1.11288 0.451149 1.01762 0.470073 0.928747 0.506863C0.839869 0.543653 0.759108 0.597588 0.691073 0.66559C0.62304 0.733591 0.569068 0.814326 0.532236 0.903187C0.495404 0.992047 0.476435 1.08729 0.476412 1.18348C0.476389 1.27967 0.495314 1.37493 0.532104 1.46381C0.568893 1.55268 0.622829 1.63344 0.690831 1.70148L9.20108 10.2117L0.690831 18.722C0.588333 18.8244 0.518522 18.955 0.490234 19.0971C0.461946 19.2392 0.47645 19.3865 0.531913 19.5204C0.587376 19.6543 0.681305 19.7687 0.801811 19.8491C0.922318 19.9296 1.06399 19.9725 1.2089 19.9725Z" fill="black"/>
</svg>
