<svg width="121" height="114" fill="none" xmlns="http://www.w3.org/2000/svg"><path d="M61.512 25.538C41.374 16.643 28.366 12.83 9.015 11.045c-3.914-.361-6.474 3.77-4.79 7.322 2.109 4.449 3.428 8.687 3.812 14.92-.405 7.663-2.77 13.028-1.926 20.64.043.387.143.774.285 1.138 5.83 14.956 13.124 19.378 27.914 24.376" stroke="#fff" stroke-width="4"/><path d="M60.275 39.688c-.948.206-5.532 3.266-9.011 5.44-1.649 1.031-2.656 2.875-2.533 4.815l1.035 16.359c0 4.716-4.637 6.064-8.037 2.021" stroke="#fff" stroke-width="4"/><path d="M88.437 16.442 109.765 3.64c7.385-4.042 12.949-.337 6.182 8.086L87.132 38.803a5.002 5.002 0 0 0-.966 1.25L75.841 58.991a5 5 0 0 0 1.19 6.234l7.354 6.13c5.198 4 3.742 8.657 2.214 12.67a3.774 3.774 0 0 1-.102.247c-.777 1.724-10.112 22.28-14.476 25.826-4.555 3.701-11.338-.779-10.818-5.391.406-3.609 5.289-16.015 7.392-21.236a3.322 3.322 0 0 0-1.061-3.883 3.298 3.298 0 0 0-2.42-.649l-3.911.502-1.764.16c-1.251.113-2.4.68-3.245 1.609-5.045 5.552-23.173 25.418-25.593 26.866-2.815 1.685-11.47 2.022-9.273-6.738 1.838-7.33 14.91-24.57 19.127-29.999a5.059 5.059 0 0 0 1.025-3.78l-3.46-25.85c-.31-6.064-1.237-6.738 5.288-9.77l18.855-6.738" stroke="#fff" stroke-width="4"/><path d="M62.584 20.148c0 7.39 5.59 13.16 12.22 13.16 6.629 0 12.218-5.77 12.218-13.16 0-7.39-5.59-13.16-12.219-13.16-6.63 0-12.219 5.77-12.219 13.16Z" stroke="#fff" stroke-width="4"/></svg>