<svg width="49" height="52" viewBox="0 0 49 52" fill="none" xmlns="http://www.w3.org/2000/svg">
<path d="M36.75 26.0001C36.7488 26.4002 36.6433 26.7921 36.4451 27.1325C36.2469 27.4729 35.9638 27.7483 35.6271 27.9284L15.2104 38.7617C14.7345 38.972 14.2012 38.9835 13.7177 38.7938C13.2342 38.6042 12.8361 38.2274 12.6035 37.7392C12.3709 37.251 12.3209 36.6875 12.4637 36.1618C12.6064 35.6361 12.9312 35.1871 13.3729 34.9051L30.135 26.0001L13.3729 17.0951C13.1137 16.9805 12.8796 16.8105 12.6851 16.5956C12.4907 16.3807 12.3401 16.1255 12.2427 15.8461C12.1454 15.5666 12.1034 15.2688 12.1194 14.9714C12.1354 14.6739 12.2091 14.3831 12.3357 14.1172C12.4624 13.8514 12.6394 13.616 12.8557 13.426C13.0719 13.236 13.3228 13.0954 13.5926 13.0129C13.8624 12.9304 14.1453 12.9079 14.4236 12.9467C14.702 12.9855 14.9698 13.0848 15.2104 13.2384L35.6271 24.0717C35.9638 24.2518 36.2469 24.5273 36.4451 24.8676C36.6433 25.208 36.7488 25.6 36.75 26.0001Z" fill="#8364E8"/>
</svg>
