<svg width="35" height="35" viewBox="0 0 35 35" fill="none" xmlns="http://www.w3.org/2000/svg">
<path d="M3.2371 3.23734C2.84879 3.62565 2.8135 4.23328 3.1312 4.66146L3.2371 4.78414L9.12085 10.6679C6.31795 12.6359 4.22308 15.5752 3.35262 19.0526C3.20594 19.6385 3.56206 20.2325 4.14803 20.3792C4.73402 20.5258 5.32796 20.1698 5.47465 19.5837C6.24679 16.4992 8.1538 13.912 10.6957 12.2423L13.3348 14.8816C12.303 15.9338 11.6667 17.3753 11.6667 18.9654C11.6667 22.1871 14.2784 24.7987 17.5001 24.7987C19.0902 24.7987 20.5317 24.1624 21.584 23.1307L30.2163 31.7633C30.6435 32.1904 31.3359 32.1904 31.763 31.7633C32.1514 31.3751 32.1867 30.7674 31.8689 30.3392L31.763 30.2166L22.8475 21.3L22.8492 21.2978L21.0991 19.5509L16.9138 15.3665L16.9167 15.3653L12.715 11.168L12.7167 11.1653L11.064 9.51666L4.7839 3.23734C4.35677 2.81021 3.66423 2.81021 3.2371 3.23734ZM14.8811 16.4292L20.0364 21.5845C19.3802 22.2201 18.4858 22.6112 17.5001 22.6112C15.4866 22.6112 13.8542 20.9789 13.8542 18.9654C13.8542 17.9797 14.2454 17.0853 14.8811 16.4292ZM17.5001 8.02116C16.0413 8.02116 14.6259 8.23709 13.2871 8.64095L15.0911 10.4437C15.8724 10.2893 16.6782 10.2087 17.5001 10.2087C23.2213 10.2087 28.1604 14.1174 29.5271 19.5904C29.6735 20.1764 30.2672 20.5328 30.8533 20.3865C31.4394 20.2401 31.7958 19.6464 31.6494 19.0603C30.0409 12.6189 24.231 8.02116 17.5001 8.02116ZM17.784 13.1389L23.3276 18.6816C23.1791 15.6819 20.7772 13.2823 17.784 13.1389Z" fill="#AB7EF1"/>
</svg>
