<svg width="74" height="166" viewBox="0 0 74 166" fill="none" xmlns="http://www.w3.org/2000/svg">
<path d="M21.8241 3.76442L21.8245 3.7642C33.7859 -2.15404 49.5326 0.95619 59.7644 9.78357C69.5018 18.1925 71.67 29.6147 72.4657 33.8081C75.5145 49.8726 69.1666 64.4647 67.3374 68.6624L67.3373 68.6627C66.4006 70.816 65.6078 72.311 64.8723 73.6978C64.6744 74.0709 64.4807 74.4362 64.2895 74.8044C63.3846 76.5464 62.5527 78.3216 61.646 81.2113C58.8792 90.0236 58.8845 98.0392 59.4146 103.69L16.9859 108.052C10.6559 98.1464 -1.08074 76.3549 1.287 48.6305C1.8166 42.4765 2.5995 33.3945 5.44107 24.767C8.28246 16.14 13.1581 8.04114 21.8241 3.76442Z" fill="#D397FA" stroke="black"/>
<path d="M23.9054 150.31C16.3912 138.791 18.3764 125.857 19.0403 122.407L62.4818 116.144C70.7219 124.691 73.719 136.956 70.301 147.537C70.1199 148.097 69.0202 151.342 66.5863 154.921C64.1518 158.501 60.4053 162.381 54.9394 164.271C48.7627 166.406 42.5363 165.255 37.0716 162.388C31.6023 159.519 26.9294 154.945 23.9054 150.31Z" fill="#D397FA" stroke="black"/>
</svg>
