<svg width="195" height="140" viewBox="0 0 195 140" fill="none" xmlns="http://www.w3.org/2000/svg">
<rect x="5.37321" y="121.355" width="177.36" height="17.5182" fill="#55AFE9" stroke="black"/>
<rect x="12.1957" y="94.0654" width="182.233" height="27.2647" fill="#4888B1" stroke="black"/>
<rect x="0.5" y="81.3955" width="160.791" height="12.645" fill="#90CFF7" stroke="black"/>
<rect x="15.1197" y="56.0547" width="170.537" height="25.3154" fill="#59AFE7" stroke="black"/>
<rect x="5.37321" y="20.9678" width="170.537" height="35.0618" fill="#B6E0FB" stroke="black"/>
<rect x="12.1957" y="0.5" width="170.537" height="20.4422" fill="#33AFFF" stroke="black"/>
<rect x="17.5436" y="58.4785" width="168.613" height="20.4675" fill="white"/>
<line x1="17.5435" y1="61.1523" x2="186.16" y2="61.1523" stroke="#C0C0C0" stroke-width="0.5"/>
<line x1="17.5434" y1="64.0762" x2="186.159" y2="64.0762" stroke="#C0C0C0" stroke-width="0.5"/>
<line x1="17.5434" y1="67" x2="186.159" y2="67" stroke="#C0C0C0" stroke-width="0.5"/>
<line x1="17.5434" y1="69.9248" x2="186.159" y2="69.9248" stroke="#C0C0C0" stroke-width="0.5"/>
<line x1="17.5434" y1="72.8486" x2="186.159" y2="72.8486" stroke="#C0C0C0" stroke-width="0.5"/>
<line x1="17.5434" y1="75.7725" x2="186.159" y2="75.7725" stroke="#C0C0C0" stroke-width="0.5"/>
<rect x="17.5435" y="97.4648" width="177.382" height="20.4675" fill="white"/>
<line x1="17.5434" y1="100.139" x2="194.928" y2="100.139" stroke="#C0C0C0" stroke-width="0.5"/>
<line x1="17.5434" y1="103.062" x2="194.928" y2="103.062" stroke="#C0C0C0" stroke-width="0.5"/>
<line x1="17.5434" y1="105.986" x2="194.928" y2="105.986" stroke="#C0C0C0" stroke-width="0.5"/>
<line x1="17.5434" y1="108.91" x2="194.928" y2="108.91" stroke="#C0C0C0" stroke-width="0.5"/>
<line x1="17.5434" y1="111.834" x2="194.928" y2="111.834" stroke="#C0C0C0" stroke-width="0.5"/>
<line x1="17.5434" y1="114.759" x2="194.928" y2="114.759" stroke="#C0C0C0" stroke-width="0.5"/>
<rect x="9.74644" y="24.3662" width="166.664" height="28.2647" fill="white"/>
<line x1="9.74664" y1="28.1533" x2="176.413" y2="28.1533" stroke="#C0C0C0" stroke-width="0.5"/>
<line x1="9.74664" y1="32.1914" x2="176.413" y2="32.1914" stroke="#C0C0C0" stroke-width="0.5"/>
<line x1="9.74664" y1="36.2285" x2="176.413" y2="36.2285" stroke="#C0C0C0" stroke-width="0.5"/>
<line x1="9.74664" y1="40.2666" x2="176.413" y2="40.2666" stroke="#C0C0C0" stroke-width="0.5"/>
<line x1="9.74664" y1="44.3047" x2="176.413" y2="44.3047" stroke="#C0C0C0" stroke-width="0.5"/>
<line x1="9.74664" y1="48.3428" x2="176.413" y2="48.3428" stroke="#C0C0C0" stroke-width="0.5"/>
<line x1="175.936" y1="24.3662" x2="175.936" y2="52.6309" stroke="black"/>
<line x1="185.682" y1="58.4785" x2="185.682" y2="78.946" stroke="black"/>
<line x1="194.454" y1="97.4648" x2="194.454" y2="117.932" stroke="black"/>
</svg>
