<svg width="49" height="52" viewBox="0 0 49 52" fill="none" xmlns="http://www.w3.org/2000/svg">
<path d="M12.2499 25.9999C12.251 25.5998 12.3566 25.2079 12.5548 24.8675C12.753 24.5271 13.0361 24.2517 13.3728 24.0716L33.7895 13.2383C34.2654 13.028 34.7986 13.0165 35.2822 13.2062C35.7657 13.3958 36.1637 13.7726 36.3964 14.2608C36.629 14.749 36.6789 15.3125 36.5362 15.8382C36.3935 16.3639 36.0687 16.8129 35.627 17.0949L18.8649 25.9999L35.627 34.9049C35.8862 35.0195 36.1203 35.1895 36.3148 35.4044C36.5092 35.6193 36.6598 35.8745 36.7572 36.1539C36.8545 36.4334 36.8965 36.7312 36.8805 37.0286C36.8645 37.3261 36.7908 37.6169 36.6641 37.8828C36.5374 38.1486 36.3605 38.384 36.1442 38.574C35.928 38.764 35.6771 38.9046 35.4073 38.9871C35.1375 39.0696 34.8546 39.0921 34.5762 39.0533C34.2979 39.0145 34.03 38.9152 33.7895 38.7616L13.3728 27.9283C13.0361 27.7482 12.753 27.4727 12.5548 27.1324C12.3566 26.792 12.251 26.4 12.2499 25.9999Z" fill="#8364E8"/>
</svg>
