<svg width="22" height="22" viewBox="0 0 22 22" fill="none" xmlns="http://www.w3.org/2000/svg">
<g clip-path="url(#clip0_350_939)">
<path d="M11 19.9375C9.23233 19.9375 7.50436 19.4133 6.0346 18.4313C4.56483 17.4492 3.41929 16.0534 2.74283 14.4202C2.06637 12.7871 1.88938 10.9901 2.23424 9.25638C2.57909 7.52268 3.43031 5.93017 4.68024 4.68024C5.93017 3.43031 7.52268 2.57909 9.25638 2.23424C10.9901 1.88938 12.7871 2.06637 14.4202 2.74283C16.0534 3.41929 17.4492 4.56483 18.4313 6.0346C19.4133 7.50436 19.9375 9.23233 19.9375 11C19.9375 13.3704 18.9959 15.6437 17.3198 17.3198C15.6437 18.9959 13.3704 19.9375 11 19.9375ZM11 3.4375C9.50428 3.4375 8.04215 3.88104 6.7985 4.71201C5.55486 5.54299 4.58555 6.72409 4.01316 8.10596C3.44078 9.48783 3.29101 11.0084 3.58282 12.4754C3.87462 13.9424 4.59487 15.2899 5.65251 16.3475C6.71014 17.4051 8.05765 18.1254 9.52463 18.4172C10.9916 18.709 12.5122 18.5592 13.894 17.9868C15.2759 17.4145 16.457 16.4452 17.288 15.2015C18.119 13.9579 18.5625 12.4957 18.5625 11C18.5625 8.9943 17.7657 7.07075 16.3475 5.65251C14.9293 4.23427 13.0057 3.4375 11 3.4375Z" fill="#D9D9D9"/>
<path d="M14.7813 15.4688C14.6908 15.4693 14.6011 15.4519 14.5173 15.4177C14.4336 15.3835 14.3574 15.3331 14.2931 15.2694L10.5119 11.4881C10.4482 11.4239 10.3978 11.3477 10.3635 11.2639C10.3293 11.1802 10.312 11.0905 10.3125 11V5.5C10.3125 5.31766 10.3849 5.1428 10.5139 5.01386C10.6428 4.88493 10.8177 4.8125 11 4.8125C11.1823 4.8125 11.3572 4.88493 11.4861 5.01386C11.6151 5.1428 11.6875 5.31766 11.6875 5.5V10.7181L15.2694 14.2931C15.3338 14.357 15.385 14.4331 15.4199 14.5169C15.4548 14.6006 15.4727 14.6905 15.4727 14.7812C15.4727 14.872 15.4548 14.9619 15.4199 15.0456C15.385 15.1294 15.3338 15.2055 15.2694 15.2694C15.2051 15.3331 15.129 15.3835 15.0452 15.4177C14.9614 15.4519 14.8717 15.4693 14.7813 15.4688Z" fill="#D9D9D9"/>
</g>
<defs>
<clipPath id="clip0_350_939">
<rect width="22" height="22" fill="white"/>
</clipPath>
</defs>
</svg>
