<svg width="11" height="20" viewBox="0 0 11 20" fill="none" xmlns="http://www.w3.org/2000/svg">
<path d="M10.2364 19.9725C10.1402 19.9725 10.045 19.9536 9.95606 19.9168C9.86717 19.8801 9.7864 19.8261 9.71835 19.7581L0.690518 10.7298C0.55321 10.5924 0.476074 10.4062 0.476074 10.212C0.476074 10.0178 0.55321 9.8315 0.690518 9.69415L9.71835 0.665834C9.78635 0.5978 9.86709 0.543827 9.95595 0.506995C10.0448 0.470163 10.1401 0.451195 10.2362 0.451172C10.3324 0.451149 10.4277 0.470073 10.5166 0.506863C10.6054 0.543653 10.6862 0.597588 10.7542 0.66559C10.8223 0.733591 10.8762 0.814326 10.9131 0.903187C10.9499 0.992047 10.9689 1.08729 10.9689 1.18348C10.9689 1.27967 10.95 1.37493 10.9132 1.46381C10.8764 1.55268 10.8225 1.63344 10.7545 1.70148L2.24423 10.2117L10.7545 18.722C10.857 18.8244 10.9268 18.955 10.9551 19.0971C10.9834 19.2392 10.9689 19.3865 10.9134 19.5204C10.8579 19.6543 10.764 19.7687 10.6435 19.8491C10.523 19.9296 10.3813 19.9725 10.2364 19.9725Z" fill="black"/>
</svg>
