<svg width="474" height="118" viewBox="0 0 474 118" fill="none" xmlns="http://www.w3.org/2000/svg">
<path fill-rule="evenodd" clip-rule="evenodd" d="M234.496 64.9637C234.495 64.9637 234.494 64.9638 234.493 64.9638C234.489 64.9641 234.486 64.9643 234.482 64.9647C234.472 64.9651 234.461 64.9659 234.451 64.9672C234.358 64.9787 234.273 65.0221 234.207 65.0905C234.142 65.1589 234.101 65.2482 234.092 65.3437C232.273 74.9979 227.087 81.0933 217.239 82.7789C217.152 82.7868 217.07 82.8229 217.005 82.8821C216.939 82.9413 216.894 83.0205 216.874 83.1083C216.874 83.1097 216.874 83.1112 216.874 83.1126C216.871 83.1246 216.869 83.1368 216.868 83.149C216.867 83.1523 216.867 83.1555 216.867 83.1588C216.866 83.1685 216.865 83.1783 216.865 83.1881C216.865 83.1946 216.865 83.201 216.865 83.2075C216.865 83.2145 216.865 83.2214 216.865 83.2283C216.866 83.2381 216.867 83.2479 216.868 83.2576C216.869 83.2609 216.869 83.2641 216.869 83.2673C216.871 83.2804 216.874 83.2935 216.877 83.3064C216.898 83.3923 216.945 83.4693 217.01 83.5265C217.076 83.5836 217.157 83.6182 217.242 83.6252C227.087 85.3113 232.272 91.4045 234.091 101.055C234.1 101.153 234.141 101.245 234.208 101.315C234.276 101.384 234.364 101.428 234.459 101.437C234.461 101.437 234.462 101.437 234.463 101.437H234.464C234.472 101.437 234.479 101.437 234.487 101.437C234.494 101.437 234.5 101.437 234.507 101.437C234.51 101.437 234.513 101.437 234.516 101.437C234.614 101.434 234.708 101.393 234.78 101.324C234.852 101.254 234.898 101.16 234.908 101.058C236.731 91.4042 241.912 85.3089 251.76 83.623C251.847 83.6154 251.929 83.5794 251.995 83.5201C252.061 83.4609 252.106 83.3815 252.126 83.2935C252.126 83.2921 252.126 83.2907 252.126 83.2892C252.129 83.2772 252.131 83.265 252.132 83.2528C252.133 83.2495 252.133 83.2463 252.133 83.2431C252.134 83.2333 252.135 83.2236 252.135 83.2138C252.135 83.2073 252.135 83.2008 252.135 83.1943C252.135 83.1873 252.135 83.1804 252.135 83.1735C252.134 83.1637 252.133 83.154 252.132 83.1442C252.131 83.141 252.131 83.1377 252.131 83.1345C252.129 83.1214 252.126 83.1084 252.123 83.0955C252.102 83.0097 252.056 82.9328 251.99 82.8757C251.925 82.8185 251.844 82.7839 251.759 82.7767C241.914 81.0907 236.732 74.9976 234.909 65.347C234.9 65.2489 234.859 65.157 234.792 65.0872C234.724 65.0174 234.635 64.974 234.541 64.9645C234.539 64.9644 234.538 64.9642 234.537 64.9641H234.536C234.528 64.9636 234.52 64.9633 234.513 64.9633C234.507 64.9629 234.502 64.9626 234.496 64.9624L234.496 64.9637Z" fill="url(#paint0_linear_84_2)"/>
<path fill-rule="evenodd" clip-rule="evenodd" d="M18.9963 6.51648C18.9954 6.51651 18.9945 6.51655 18.9936 6.51659C18.9902 6.51679 18.9868 6.51703 18.9834 6.51731C18.9736 6.51768 18.9639 6.51839 18.9542 6.51947C18.8687 6.52919 18.7893 6.56611 18.7289 6.62417C18.6684 6.68223 18.6306 6.758 18.6216 6.83908C16.9363 15.0361 12.1297 20.2114 3.00189 21.6426C2.92156 21.6493 2.84554 21.68 2.78483 21.7302C2.72412 21.7805 2.68186 21.8478 2.66417 21.9223C2.66392 21.9235 2.66368 21.9247 2.66345 21.9259C2.66111 21.9361 2.65925 21.9465 2.65787 21.9569C2.65755 21.9596 2.65727 21.9624 2.65703 21.9651C2.65609 21.9734 2.65546 21.9817 2.65513 21.99C2.655 21.9955 2.655 22.001 2.65513 22.0065C2.65514 22.0124 2.65531 22.0183 2.65562 22.0242C2.65623 22.0325 2.65714 22.0408 2.65836 22.049C2.65872 22.0518 2.65911 22.0545 2.65954 22.0573C2.66136 22.0684 2.66374 22.0795 2.66666 22.0904C2.68613 22.1634 2.72925 22.2288 2.78995 22.2773C2.85066 22.3259 2.9259 22.3552 3.0051 22.3611C12.1291 23.7928 16.9347 28.9662 18.6206 37.1597C18.6288 37.243 18.6674 37.3211 18.7298 37.3804C18.7922 37.4397 18.8744 37.4765 18.9624 37.4846C18.9634 37.4846 18.9645 37.4846 18.9656 37.4846H18.9663C18.9736 37.4848 18.9809 37.4848 18.9883 37.4846C18.9943 37.4847 19.0004 37.4847 19.0064 37.4846C19.0091 37.4846 19.0117 37.4846 19.0144 37.4846C19.1058 37.4814 19.1929 37.4472 19.2598 37.3881C19.3267 37.329 19.3688 37.249 19.3785 37.1628C21.0674 28.9659 25.87 23.7907 34.9971 22.3593C35.0776 22.3529 35.1539 22.3223 35.2148 22.2719C35.2757 22.2216 35.3181 22.1542 35.3359 22.0795C35.3361 22.0783 35.3363 22.0771 35.3366 22.0759C35.3389 22.0657 35.3408 22.0553 35.3422 22.045C35.3425 22.0422 35.3428 22.0395 35.343 22.0367C35.3439 22.0284 35.3446 22.0201 35.3449 22.0118C35.345 22.0063 35.345 22.0008 35.3449 21.9953C35.3449 21.9894 35.3447 21.9835 35.3444 21.9776C35.3438 21.9693 35.3429 21.961 35.3417 21.9528C35.3413 21.95 35.341 21.9473 35.3405 21.9445C35.3387 21.9334 35.3363 21.9223 35.3334 21.9114C35.314 21.8385 35.271 21.7733 35.2104 21.7247C35.1499 21.6762 35.0748 21.6468 34.9958 21.6407C25.8712 20.2092 21.0691 15.0358 19.3794 6.84196C19.3712 6.75863 19.3326 6.68063 19.2702 6.62135C19.2078 6.56208 19.1256 6.52525 19.0377 6.51718C19.0366 6.51706 19.0355 6.51695 19.0344 6.51683H19.0335C19.0262 6.51639 19.019 6.51615 19.0117 6.51611C19.0066 6.51577 19.0014 6.51552 18.9963 6.51538L18.9963 6.51648Z" fill="url(#paint1_linear_84_2)"/>
<path fill-rule="evenodd" clip-rule="evenodd" d="M104.495 40.5296C104.493 40.5296 104.492 40.5297 104.491 40.5298C104.486 40.5301 104.481 40.5306 104.476 40.5311C104.462 40.5317 104.448 40.533 104.434 40.5349C104.31 40.5524 104.195 40.6189 104.108 40.7234C104.02 40.8279 103.965 40.9643 103.952 41.1102C101.513 55.8649 94.5561 65.1805 81.3448 67.7566C81.2285 67.7686 81.1185 67.8238 81.0306 67.9143C80.9428 68.0048 80.8816 68.1259 80.856 68.26C80.8556 68.2622 80.8553 68.2644 80.855 68.2665C80.8516 68.285 80.8489 68.3036 80.8469 68.3223C80.8464 68.3272 80.846 68.3322 80.8457 68.3372C80.8443 68.352 80.8434 68.367 80.8429 68.3819C80.8427 68.3918 80.8427 68.4017 80.8429 68.4117C80.8429 68.4223 80.8432 68.4329 80.8436 68.4434C80.8445 68.4584 80.8458 68.4733 80.8476 68.4882C80.8481 68.4931 80.8487 68.4981 80.8493 68.503C80.8519 68.5231 80.8554 68.543 80.8596 68.5627C80.8878 68.694 80.9502 68.8117 81.0381 68.8991C81.1259 68.9865 81.2348 69.0392 81.3495 69.0499C94.5553 71.6269 101.511 80.9391 103.951 95.6874C103.963 95.8374 104.019 95.9779 104.109 96.0846C104.199 96.1913 104.318 96.2576 104.446 96.2722C104.447 96.2722 104.449 96.2722 104.45 96.2722H104.451C104.462 96.2725 104.472 96.2725 104.483 96.2722C104.492 96.2724 104.5 96.2724 104.509 96.2722C104.513 96.2722 104.517 96.2722 104.521 96.2722C104.653 96.2665 104.779 96.2048 104.876 96.0985C104.973 95.9921 105.034 95.8481 105.048 95.693C107.492 80.9386 114.443 71.6232 127.654 69.0467C127.77 69.0351 127.881 68.98 127.969 68.8894C128.057 68.7988 128.118 68.6775 128.144 68.543C128.144 68.5409 128.145 68.5387 128.145 68.5365C128.148 68.5181 128.151 68.4995 128.153 68.4808C128.154 68.4759 128.154 68.4709 128.154 68.4659C128.156 68.4511 128.157 68.4361 128.157 68.4212C128.157 68.4113 128.157 68.4013 128.157 68.3914C128.157 68.3808 128.157 68.3702 128.156 68.3597C128.156 68.3447 128.154 68.3298 128.152 68.3149C128.152 68.31 128.151 68.305 128.151 68.3C128.148 68.28 128.145 68.2601 128.14 68.2404C128.112 68.1093 128.05 67.9918 127.962 67.9044C127.875 67.8171 127.766 67.7642 127.652 67.7532C114.445 65.1765 107.495 55.8644 105.049 41.1154C105.037 40.9654 104.981 40.825 104.891 40.7183C104.801 40.6116 104.682 40.5453 104.554 40.5308C104.553 40.5306 104.551 40.5304 104.55 40.5302H104.548C104.538 40.5294 104.527 40.529 104.517 40.5289C104.509 40.5283 104.502 40.5278 104.495 40.5276L104.495 40.5296Z" fill="url(#paint2_linear_84_2)"/>
<path fill-rule="evenodd" clip-rule="evenodd" d="M174.997 15.001C174.997 15.001 174.996 15.001 174.995 15.0011C174.993 15.0012 174.99 15.0014 174.988 15.0017C174.981 15.002 174.973 15.0026 174.966 15.0036C174.904 15.012 174.845 15.0442 174.801 15.0948C174.757 15.1455 174.729 15.2115 174.722 15.2822C173.485 22.4286 169.956 26.9406 163.255 28.1884C163.196 28.1942 163.14 28.2209 163.095 28.2648C163.051 28.3086 163.02 28.3672 163.007 28.4322C163.007 28.4333 163.006 28.4343 163.006 28.4353C163.004 28.4443 163.003 28.4533 163.002 28.4623C163.002 28.4647 163.002 28.4672 163.001 28.4696C163.001 28.4768 163 28.484 163 28.4912C163 28.496 163 28.5008 163 28.5057C163 28.5108 163 28.5159 163 28.521C163.001 28.5283 163.002 28.5355 163.002 28.5427C163.003 28.5451 163.003 28.5475 163.003 28.5499C163.005 28.5596 163.006 28.5693 163.009 28.5788C163.023 28.6424 163.054 28.6994 163.099 28.7417C163.144 28.784 163.199 28.8096 163.257 28.8148C169.956 30.0629 173.484 34.5733 174.721 41.7166C174.727 41.7893 174.756 41.8573 174.802 41.909C174.847 41.9607 174.908 41.9928 174.972 41.9999C174.973 41.9999 174.974 41.9999 174.975 41.9999H174.975C174.981 42 174.986 42 174.991 41.9999C174.996 42 175 42 175.005 41.9999C175.007 41.9999 175.009 41.9999 175.011 41.9999C175.078 41.9971 175.142 41.9673 175.191 41.9157C175.24 41.8642 175.271 41.7945 175.278 41.7193C176.518 34.5731 180.044 30.0612 186.745 28.8132C186.804 28.8076 186.86 28.7809 186.904 28.737C186.949 28.6932 186.98 28.6344 186.993 28.5693C186.993 28.5682 186.994 28.5672 186.994 28.5661C186.996 28.5572 186.997 28.5482 186.998 28.5391C186.998 28.5367 186.998 28.5343 186.999 28.5319C186.999 28.5247 187 28.5175 187 28.5103C187 28.5055 187 28.5006 187 28.4958C187 28.4907 187 28.4856 187 28.4805C186.999 28.4732 186.998 28.466 186.998 28.4588C186.997 28.4564 186.997 28.454 186.997 28.4516C186.995 28.4419 186.994 28.4322 186.991 28.4227C186.977 28.3592 186.946 28.3023 186.901 28.26C186.857 28.2177 186.802 28.192 186.744 28.1867C180.045 26.9387 176.519 22.4284 175.279 15.2847C175.273 15.2121 175.244 15.1441 175.198 15.0924C175.153 15.0407 175.092 15.0086 175.028 15.0016C175.027 15.0015 175.026 15.0014 175.025 15.0013H175.025C175.019 15.0009 175.014 15.0007 175.009 15.0006C175.005 15.0003 175.001 15.0001 174.997 15L174.997 15.001Z" fill="url(#paint3_linear_84_2)"/>
<path fill-rule="evenodd" clip-rule="evenodd" d="M324.993 0.00273156C324.991 0.00281333 324.989 0.00290747 324.987 0.00300472C324.98 0.00349341 324.973 0.00410286 324.966 0.00480755C324.947 0.00571239 324.927 0.00748727 324.907 0.0101614C324.735 0.034333 324.575 0.12612 324.453 0.270479C324.331 0.414839 324.254 0.603228 324.236 0.804828C320.833 21.1853 311.129 34.0529 292.7 37.6113C292.538 37.6278 292.385 37.7041 292.262 37.8291C292.139 37.9541 292.054 38.1213 292.018 38.3067C292.018 38.3096 292.017 38.3126 292.017 38.3156C292.012 38.3411 292.009 38.3668 292.006 38.3926C292.005 38.3995 292.005 38.4063 292.004 38.4132C292.002 38.4337 292.001 38.4543 292 38.475C292 38.4887 292 38.5024 292 38.5161C292 38.5307 292.001 38.5454 292.001 38.56C292.002 38.5806 292.004 38.6013 292.007 38.6218C292.007 38.6287 292.008 38.6355 292.009 38.6423C292.013 38.67 292.018 38.6975 292.023 38.7247C292.063 38.9061 292.15 39.0686 292.272 39.1893C292.395 39.3101 292.547 39.3829 292.707 39.3977C311.128 42.9573 320.83 55.8202 324.234 76.1918C324.251 76.3991 324.329 76.5931 324.454 76.7406C324.58 76.888 324.746 76.9796 324.924 76.9996C324.926 76.9996 324.928 76.9996 324.93 76.9996H324.932C324.947 77.0001 324.961 77.0001 324.976 76.9996C324.988 77 325.001 77 325.013 76.9996C325.018 76.9997 325.024 76.9997 325.029 76.9996C325.214 76.9918 325.389 76.9066 325.524 76.7597C325.66 76.6127 325.745 76.4138 325.764 76.1996C329.174 55.8195 338.87 42.9522 357.298 39.3932C357.46 39.3772 357.614 39.3011 357.737 39.176C357.86 39.0509 357.946 38.8833 357.982 38.6976C357.982 38.6946 357.983 38.6916 357.983 38.6886C357.988 38.6631 357.991 38.6375 357.994 38.6116C357.995 38.6048 357.995 38.5979 357.996 38.5911C357.998 38.5705 357.999 38.5499 358 38.5293C358 38.5156 358 38.5018 358 38.4881C358 38.4735 357.999 38.4589 357.999 38.4443C357.998 38.4236 357.996 38.403 357.993 38.3825C357.993 38.3756 357.992 38.3687 357.991 38.3619C357.987 38.3342 357.982 38.3067 357.977 38.2796C357.937 38.0984 357.851 37.9362 357.728 37.8155C357.606 37.6948 357.455 37.6217 357.295 37.6066C338.873 34.0473 329.177 21.1846 325.766 0.811984C325.749 0.604796 325.671 0.410861 325.545 0.263487C325.42 0.116112 325.254 0.0245304 325.076 0.00447976C325.074 0.00417004 325.072 0.00389266 325.069 0.00360566H325.068C325.053 0.00251549 325.038 0.00190585 325.024 0.00180283C325.013 0.000962992 325.003 0.000353476 324.993 0L324.993 0.00273156Z" fill="url(#paint4_linear_84_2)"/>
<path fill-rule="evenodd" clip-rule="evenodd" d="M416.496 65.1315C416.495 65.1315 416.493 65.1316 416.492 65.1316C416.488 65.1319 416.484 65.1322 416.48 65.1325C416.469 65.133 416.457 65.1339 416.446 65.1352C416.344 65.1473 416.25 65.1933 416.179 65.2655C416.107 65.3378 416.062 65.4321 416.052 65.533C414.056 75.7337 408.364 82.1741 397.555 83.9552C397.46 83.9634 397.37 84.0016 397.298 84.0642C397.226 84.1267 397.176 84.2104 397.155 84.3032C397.155 84.3047 397.154 84.3062 397.154 84.3077C397.151 84.3204 397.149 84.3333 397.147 84.3462C397.147 84.3496 397.147 84.3531 397.146 84.3565C397.145 84.3668 397.145 84.3771 397.144 84.3874C397.144 84.3943 397.144 84.4011 397.144 84.408C397.144 84.4153 397.144 84.4227 397.145 84.43C397.145 84.4403 397.147 84.4506 397.148 84.4609C397.148 84.4643 397.149 84.4678 397.149 84.4712C397.152 84.485 397.154 84.4988 397.158 84.5124C397.181 84.6032 397.232 84.6846 397.304 84.745C397.376 84.8054 397.465 84.8419 397.559 84.8493C408.363 86.6309 414.054 93.069 416.051 103.265C416.06 103.369 416.106 103.466 416.18 103.54C416.254 103.614 416.351 103.66 416.455 103.67C416.457 103.67 416.458 103.67 416.459 103.67H416.46C416.469 103.67 416.477 103.67 416.486 103.67C416.493 103.67 416.5 103.67 416.508 103.67C416.511 103.67 416.514 103.67 416.517 103.67C416.625 103.666 416.728 103.623 416.808 103.549C416.887 103.476 416.937 103.376 416.948 103.269C418.948 93.0686 424.635 86.6284 435.444 84.847C435.539 84.839 435.63 84.8009 435.702 84.7383C435.774 84.6757 435.824 84.5918 435.845 84.4988C435.845 84.4973 435.846 84.4958 435.846 84.4943C435.849 84.4816 435.851 84.4687 435.852 84.4558C435.853 84.4524 435.853 84.449 435.853 84.4455C435.855 84.4353 435.855 84.4249 435.856 84.4146C435.856 84.4077 435.856 84.4009 435.856 84.394C435.856 84.3867 435.856 84.3794 435.855 84.3721C435.854 84.3617 435.853 84.3514 435.852 84.3411C435.852 84.3377 435.851 84.3343 435.851 84.3308C435.848 84.317 435.846 84.3032 435.842 84.2896C435.819 84.199 435.768 84.1177 435.697 84.0573C435.625 83.9969 435.536 83.9604 435.442 83.9528C424.637 82.1713 418.95 75.7333 416.949 65.5365C416.939 65.4328 416.894 65.3358 416.82 65.262C416.746 65.1882 416.649 65.1424 416.545 65.1324C416.543 65.1322 416.542 65.1321 416.541 65.1319H416.54C416.531 65.1314 416.522 65.1311 416.514 65.131C416.508 65.1306 416.502 65.1303 416.496 65.1301L416.496 65.1315Z" fill="url(#paint5_linear_84_2)"/>
<path fill-rule="evenodd" clip-rule="evenodd" d="M462.998 5.56587C462.997 5.56589 462.997 5.56591 462.996 5.56594C462.994 5.56606 462.992 5.56621 462.99 5.56639C462.985 5.56662 462.979 5.56706 462.973 5.56773C462.924 5.57378 462.878 5.59675 462.843 5.63288C462.808 5.669 462.786 5.71615 462.781 5.7666C461.805 10.867 459.022 14.0872 453.738 14.9777C453.691 14.9818 453.647 15.0009 453.612 15.0322C453.577 15.0635 453.553 15.1053 453.542 15.1517C453.542 15.1525 453.542 15.1532 453.542 15.154C453.541 15.1603 453.54 15.1668 453.539 15.1732C453.539 15.1749 453.538 15.1767 453.538 15.1784C453.538 15.1835 453.537 15.1887 453.537 15.1938C453.537 15.1973 453.537 15.2007 453.537 15.2041C453.537 15.2078 453.537 15.2115 453.537 15.2151C453.538 15.2203 453.538 15.2254 453.539 15.2306C453.539 15.2323 453.539 15.234 453.54 15.2357C453.541 15.2426 453.542 15.2495 453.544 15.2563C453.555 15.3017 453.58 15.3424 453.615 15.3726C453.65 15.4028 453.694 15.4211 453.74 15.4248C459.022 16.3156 461.804 19.5346 462.78 24.6328C462.785 24.6846 462.807 24.7332 462.844 24.7701C462.88 24.807 462.927 24.8299 462.978 24.8349C462.979 24.8349 462.979 24.8349 462.98 24.8349H462.98C462.985 24.835 462.989 24.835 462.993 24.8349C462.997 24.835 463 24.835 463.004 24.8349C463.005 24.8349 463.007 24.8349 463.008 24.8349C463.061 24.833 463.112 24.8116 463.15 24.7749C463.189 24.7381 463.214 24.6883 463.219 24.6347C464.197 19.5344 466.977 16.3143 472.261 15.4236C472.308 15.4196 472.352 15.4006 472.388 15.3693C472.423 15.338 472.447 15.296 472.458 15.2495C472.458 15.2488 472.458 15.248 472.458 15.2473C472.459 15.2409 472.46 15.2345 472.461 15.228C472.461 15.2263 472.462 15.2246 472.462 15.2229C472.462 15.2178 472.463 15.2126 472.463 15.2074C472.463 15.204 472.463 15.2006 472.463 15.1971C472.463 15.1935 472.463 15.1898 472.463 15.1862C472.462 15.181 472.462 15.1758 472.461 15.1707C472.461 15.169 472.461 15.1672 472.46 15.1655C472.459 15.1586 472.458 15.1517 472.456 15.1449C472.445 15.0996 472.42 15.059 472.385 15.0288C472.35 14.9986 472.306 14.9803 472.261 14.9765C466.978 14.0858 464.198 10.8668 463.22 5.76839C463.215 5.71654 463.193 5.66801 463.156 5.63113C463.12 5.59424 463.073 5.57132 463.022 5.56631C463.021 5.56623 463.021 5.56616 463.02 5.56609H463.019C463.015 5.56582 463.011 5.56566 463.007 5.56564C463.004 5.56543 463.001 5.56527 462.998 5.56519L462.998 5.56587Z" fill="url(#paint6_linear_84_2)"/>
<defs>
<linearGradient id="paint0_linear_84_2" x1="234.5" y1="64.9624" x2="234.5" y2="101.437" gradientUnits="userSpaceOnUse">
<stop stop-color="white" stop-opacity="0.8"/>
<stop offset="1" stop-color="white" stop-opacity="0"/>
</linearGradient>
<linearGradient id="paint1_linear_84_2" x1="19" y1="6.51538" x2="19" y2="37.4847" gradientUnits="userSpaceOnUse">
<stop stop-color="white" stop-opacity="0.5"/>
<stop offset="1" stop-color="white" stop-opacity="0"/>
</linearGradient>
<linearGradient id="paint2_linear_84_2" x1="104.5" y1="40.5276" x2="104.5" y2="96.2724" gradientUnits="userSpaceOnUse">
<stop stop-color="white" stop-opacity="0.6"/>
<stop offset="1" stop-color="white" stop-opacity="0"/>
</linearGradient>
<linearGradient id="paint3_linear_84_2" x1="175" y1="15" x2="175" y2="42" gradientUnits="userSpaceOnUse">
<stop stop-color="white" stop-opacity="0.8"/>
<stop offset="1" stop-color="white" stop-opacity="0"/>
</linearGradient>
<linearGradient id="paint4_linear_84_2" x1="325" y1="0" x2="325" y2="77" gradientUnits="userSpaceOnUse">
<stop stop-color="white" stop-opacity="0.8"/>
<stop offset="1" stop-color="white" stop-opacity="0"/>
</linearGradient>
<linearGradient id="paint5_linear_84_2" x1="416.5" y1="65.1301" x2="416.5" y2="103.67" gradientUnits="userSpaceOnUse">
<stop stop-color="white" stop-opacity="0.9"/>
<stop offset="1" stop-color="white" stop-opacity="0"/>
</linearGradient>
<linearGradient id="paint6_linear_84_2" x1="463" y1="5.56519" x2="463" y2="24.835" gradientUnits="userSpaceOnUse">
<stop stop-color="white" stop-opacity="0.9"/>
<stop offset="1" stop-color="white" stop-opacity="0"/>
</linearGradient>
</defs>
</svg>
