<svg width="30" height="30" viewBox="0 0 30 30" fill="none" xmlns="http://www.w3.org/2000/svg">
<g clip-path="url(#clip0_251_125)">
<path d="M29.7968 4.82695C29.6614 4.19473 29.1562 3.75 28.5781 3.75H23.3281C23.3407 3.02051 23.3337 2.36133 23.3199 1.81523C23.2968 0.798633 22.5624 0 21.6562 0H8.34369C7.43744 0 6.70307 0.798633 6.67702 1.81523C6.61973 2.36133 6.65619 3.02051 6.67182 3.75H1.41973C0.841608 3.75 0.34041 4.19473 0.203692 4.82695C0.1614 5.02617 -0.818287 9.79687 1.93067 14.4082C3.88067 17.6789 7.17025 19.9764 11.6963 21.2871C12.6703 21.5687 13.3322 22.5797 13.3322 23.7111C13.3333 25.1074 12.3176 26.25 11.0729 26.25H10.8333C9.45255 26.25 8.3338 27.5092 8.3338 29.0625C8.3338 29.5802 8.70687 30 9.12025 30H20.74C21.2003 30 21.5265 29.5802 21.5265 29.0625C21.5265 27.5092 20.4078 26.25 19.027 26.25H18.7851C17.5424 26.25 16.5268 25.1074 16.5268 23.71C16.5268 22.5785 17.1888 21.5672 18.1628 21.2859C22.6919 19.977 25.9805 17.6795 27.9284 14.407C30.8176 9.79688 29.8385 5.02617 29.7968 4.82695ZM4.03171 12.8789C2.5765 10.4648 2.44838 7.95117 2.51973 6.5625H6.70671C6.98583 10.0559 7.76661 14.2441 9.71036 17.6426C7.15619 16.5 5.25515 14.9063 4.03171 12.8789ZM25.9687 12.8789C24.7479 14.9063 22.8468 16.4971 20.2916 17.6379C22.2343 14.2441 23.0156 10.0547 23.2916 6.5625H27.4786C27.5051 7.95117 27.4218 10.4707 25.9687 12.8789Z" fill="#E2EC21"/>
</g>
<defs>
<clipPath id="clip0_251_125">
<rect width="30" height="30" fill="white"/>
</clipPath>
</defs>
</svg>
