<svg width="92" height="105" viewBox="0 0 92 105" fill="none" xmlns="http://www.w3.org/2000/svg">
<path d="M45.6337 1.327C45.5764 1.05504 45.1609 1.05597 45.1047 1.32818C43.9952 6.71006 39.3075 27.0487 30.1549 36.3077C22.2382 44.3164 5.59693 50.6477 1.78806 52.0276C1.5539 52.1124 1.57534 52.4586 1.81545 52.5247C5.53537 53.5491 21.0504 58.1994 28.8873 66.4615C38.8607 76.9761 40.8381 88.6617 45.0545 102.953C45.1296 103.207 45.506 103.196 45.5546 102.935C46.4949 97.8851 51.0694 76.1954 61.8451 66.4615C69.3264 59.7035 86.4838 53.7953 90.2572 52.5491C90.4893 52.4724 90.4904 52.1429 90.2584 52.0657C86.4158 50.7869 68.639 44.5619 60.5775 36.3077C51.5378 27.052 46.7674 6.70762 45.6337 1.327Z" fill="white" stroke="url(#paint0_linear_1_3)" stroke-width="2"/>
<defs>
<linearGradient id="paint0_linear_1_3" x1="26.3521" y1="22.1538" x2="74.6442" y2="83.8535" gradientUnits="userSpaceOnUse">
<stop stop-color="#D397FA"/>
<stop offset="1" stop-color="#8364E8"/>
</linearGradient>
</defs>
</svg>
