<svg width="55" height="55" viewBox="0 0 55 55" fill="none" xmlns="http://www.w3.org/2000/svg">
<circle cx="27.5" cy="27.5" r="27.5" fill="#9C9C9C"/>
<path fill-rule="evenodd" clip-rule="evenodd" d="M8.59734 47.4736C11.3496 44.5656 17.0989 40.4167 27.5 40.4167C37.9011 40.4167 43.6504 44.5656 46.4027 47.4736C51.6972 42.4612 55 35.3663 55 27.5C55 12.3122 42.6878 0 27.5 0C12.3122 0 0 12.3122 0 27.5C0 35.3663 3.30281 42.4612 8.59734 47.4736ZM27.5 35.5C33.299 35.5 38 31.0975 38 25.6667C38 20.2359 33.299 15.8333 27.5 15.8333C21.701 15.8333 17 20.2359 17 25.6667C17 31.0975 21.701 35.5 27.5 35.5Z" fill="#D9D9D9"/>
</svg>
