<svg width="45" height="45" viewBox="0 0 45 45" fill="none" xmlns="http://www.w3.org/2000/svg">
<path d="M39.975 18.8439L36.7125 17.7564C36.4907 17.0819 36.2213 16.4239 35.9063 15.7876L37.5 12.7314C37.6735 12.3798 37.7325 11.9827 37.6686 11.596C37.6047 11.2092 37.4211 10.8522 37.1438 10.5751L34.425 7.91261C34.1546 7.62597 33.8007 7.43184 33.4136 7.35779C33.0265 7.28374 32.626 7.33354 32.2688 7.50011L29.2125 9.03761C28.5762 8.7226 27.9183 8.45317 27.2438 8.23136L26.25 5.02511C26.1196 4.63702 25.8657 4.3023 25.5271 4.07207C25.1885 3.84185 24.7839 3.72877 24.375 3.75011H20.625C20.232 3.74909 19.8485 3.87164 19.5289 4.10044C19.2092 4.32923 18.9696 4.65269 18.8438 5.02511L17.7563 8.28761C17.0818 8.50942 16.4239 8.77885 15.7875 9.09386L12.7313 7.50011C12.3797 7.32663 11.9827 7.26769 11.5959 7.33159C11.2091 7.3955 10.8521 7.57902 10.575 7.85636L7.91254 10.5751C7.6259 10.8456 7.43177 11.1995 7.35772 11.5865C7.28367 11.9736 7.33347 12.3742 7.50004 12.7314L9.03754 15.7876C8.72253 16.4239 8.45311 17.0819 8.23129 17.7564L4.96879 18.8439C4.60689 18.979 4.29558 19.2227 4.07743 19.5415C3.85928 19.8604 3.74494 20.2388 3.75004 20.6251V24.3751C3.74903 24.7682 3.87158 25.1516 4.10037 25.4713C4.32916 25.7909 4.65263 26.0306 5.02504 26.1564L8.28754 27.2439C8.50936 27.9184 8.77878 28.5763 9.09379 29.2126L7.50004 32.2689C7.32656 32.6204 7.26763 33.0175 7.33153 33.4043C7.39543 33.791 7.57895 34.148 7.85629 34.4251L10.5188 37.0876C10.7933 37.3865 11.1573 37.5884 11.5563 37.6627C11.9552 37.7371 12.3675 37.68 12.7313 37.5001L15.7875 35.9626C16.4239 36.2776 17.0818 36.547 17.7563 36.7689L18.8438 40.0314C18.979 40.3933 19.2226 40.7046 19.5415 40.9227C19.8603 41.1409 20.2388 41.2552 20.625 41.2501H24.375C24.7681 41.2511 25.1516 41.1286 25.4712 40.8998C25.7909 40.671 26.0305 40.3475 26.1563 39.9751L27.2438 36.7126C27.9183 36.4908 28.5762 36.2214 29.2125 35.9064L32.2688 37.4439C32.6203 37.6173 33.0174 37.6763 33.4042 37.6124C33.791 37.5485 34.148 37.3649 34.425 37.0876L37.0875 34.4251C37.3742 34.1546 37.5683 33.8007 37.6424 33.4137C37.7164 33.0266 37.6666 32.626 37.5 32.2689L35.9625 29.2126C36.2776 28.5763 36.547 27.9184 36.7688 27.2439L39.975 26.2501C40.3631 26.1196 40.6979 25.8657 40.9281 25.5272C41.1583 25.1886 41.2714 24.784 41.25 24.3751V20.6251C41.2511 20.232 41.1285 19.8486 40.8997 19.5289C40.6709 19.2093 40.3475 18.9696 39.975 18.8439ZM22.5 30.0001C21.0167 30.0001 19.5666 29.5602 18.3333 28.7361C17.0999 27.912 16.1386 26.7407 15.5709 25.3702C15.0033 23.9998 14.8548 22.4918 15.1442 21.0369C15.4335 19.5821 16.1478 18.2457 17.1967 17.1968C18.2456 16.1479 19.582 15.4336 21.0369 15.1442C22.4917 14.8548 23.9997 15.0034 25.3702 15.571C26.7406 16.1387 27.912 17.1 28.7361 18.3333C29.5602 19.5667 30 21.0167 30 22.5001C30 24.4892 29.2099 26.3969 27.8033 27.8034C26.3968 29.2099 24.4892 30.0001 22.5 30.0001Z" fill="#464646"/>
</svg>
