<svg width="264" height="183" viewBox="0 0 264 183" fill="none" xmlns="http://www.w3.org/2000/svg">
<path d="M163.147 97.4387C163.147 125.682 141.391 148.577 114.554 148.577C87.7162 148.577 65.9602 125.682 65.9602 97.4387C65.9602 69.1956 87.7162 46.3 114.554 46.3C141.391 46.3 163.147 69.1956 163.147 97.4387Z" fill="#FBFF1F" fill-opacity="0.5"/>
<path d="M0 182.956C0 182.956 37.8216 110.136 72.5275 112.64C87.3297 113.708 101.944 120.263 116.769 119.831C147.525 118.936 150.717 77.0667 177.78 59.8352C230.577 26.2189 264 182.956 264 182.956H0Z" fill="#D397FA" fill-opacity="0.5"/>
<path d="M0 182.97C0 182.97 26.8352 92.6781 52.2198 91.8789C77.6044 91.0797 90.0503 124.86 108.791 127.836C125.658 130.514 133.823 119.288 150.857 119.845C185.698 120.986 212.505 182.97 212.505 182.97H0Z" fill="#A02ACB" fill-opacity="0.5"/>
<rect width="38.1788" height="2.45741" rx="1.22871" transform="matrix(0.998377 -0.0569517 0.0549203 0.998491 19.3057 86.9756)" fill="#FBFF1F" fill-opacity="0.5"/>
<rect width="38.5547" height="2.43987" rx="1.21994" transform="matrix(0.674153 0.738592 -0.726223 0.687459 49.2312 24.1819)" fill="#FBFF1F" fill-opacity="0.5"/>
<rect width="38.8771" height="2.41924" rx="1.20962" transform="matrix(-0.042792 0.999084 -0.999015 -0.0443768 114.294 0.107178)" fill="#FBFF1F" fill-opacity="0.5"/>
<rect width="38.4907" height="2.44393" rx="1.22197" transform="matrix(-0.73875 0.673979 -0.660494 -0.750832 177.428 27.9736)" fill="#FBFF1F" fill-opacity="0.5"/>
<rect width="23.3017" height="2.45608" rx="1.22804" transform="matrix(0.982518 0.186169 -0.179727 0.983716 35.835 71.6943)" fill="#FBFF1F" fill-opacity="0.5"/>
<rect width="23.4526" height="2.44061" rx="1.22031" transform="matrix(0.779343 0.626598 -0.612691 0.790322 48.9546 44.6611)" fill="#FBFF1F" fill-opacity="0.5"/>
<rect width="23.6251" height="2.42267" rx="1.21134" transform="matrix(0.454127 0.890937 -0.884073 0.467349 72.9287 25.0007)" fill="#FBFF1F" fill-opacity="0.5"/>
<rect width="23.7111" height="2.41364" rx="1.20682" transform="matrix(0.0986706 0.99512 -0.994754 0.102294 100.538 15.9902)" fill="#FBFF1F" fill-opacity="0.5"/>
<rect width="23.7005" height="2.41476" rx="1.20738" transform="matrix(-0.18404 0.982919 -0.981663 -0.190625 127.198 16.6414)" fill="#FBFF1F" fill-opacity="0.5"/>
<rect width="23.5514" height="2.43037" rx="1.21519" transform="matrix(-0.61373 0.789516 -0.778511 -0.627631 156.036 27.6641)" fill="#FBFF1F" fill-opacity="0.5"/>
<rect width="23.3747" height="2.44862" rx="1.22431" transform="matrix(-0.889578 0.456784 -0.443706 -0.896172 176.948 49.4927)" fill="#FBFF1F" fill-opacity="0.5"/>
<rect width="13.2345" height="2.44918" rx="1.22459" transform="matrix(0.896798 0.44244 -0.429575 0.903031 49.3159 61.0452)" fill="#FBFF1F" fill-opacity="0.5"/>
<rect width="13.4147" height="2.41613" rx="1.20806" transform="matrix(0.25197 0.967735 -0.965421 0.260695 90.012 28.2776)" fill="#FBFF1F" fill-opacity="0.5"/>
<path d="M108.932 183C108.932 183 124.31 138.576 146.331 141.302C156.162 142.52 174.152 153.226 184.045 153.288C196.869 153.368 195.972 134.993 208.705 133.312C232.039 130.231 263.825 183 263.825 183H108.932Z" fill="#8364E8" fill-opacity="0.5"/>
<rect width="13.3927" height="2.42022" rx="1.21011" transform="matrix(-0.390619 0.920552 -0.915289 -0.402797 138.165 29.6028)" fill="#FBFF1F" fill-opacity="0.5"/>
<path d="M93.7473 84.0296C92.4213 78.7951 99.9345 74.0168 105.607 77.8524" stroke="black" stroke-opacity="0.6" stroke-width="2"/>
<path d="M135.652 73.9948C134.291 68.7697 125.442 68.3515 122.341 74.5252" stroke="black" stroke-opacity="0.6" stroke-width="2"/>
<path d="M103.215 95.8846C111.571 103.214 134.912 98.0908 136.622 86.1428" stroke="black" stroke-opacity="0.6" stroke-width="2"/>
</svg>
